HIERARCHY
ROOT Hips
{
	OFFSET 0.053599 88.859886 3.107447
	CHANNELS 6 Xposition Yposition Zposition Zrotation Yrotation Xrotation 
	JOINT Spine
	{
		OFFSET -0.000000 8.814246 -2.080107
		CHANNELS 3 Zrotation Yrotation Xrotation
		JOINT Spine1
		{
			OFFSET 0.000000 8.844141 0.000000
			CHANNELS 3 Zrotation Yrotation Xrotation
			JOINT Spine2
			{
				OFFSET -0.000000 11.682268 0.000000
				CHANNELS 3 Zrotation Yrotation Xrotation
				JOINT Spine3
				{
					OFFSET 0.000000 11.746700 0.000000
					CHANNELS 3 Zrotation Yrotation Xrotation
					JOINT Neck
					{
						OFFSET -0.000000 17.658264 -0.000000
						CHANNELS 3 Zrotation Yrotation Xrotation
						JOINT Neck1
						{
							OFFSET -0.000000 5.101515 -0.000000
							CHANNELS 3 Zrotation Yrotation Xrotation
							JOINT Head
							{
								OFFSET 0.000000 5.101515 0.000000
								CHANNELS 3 Zrotation Yrotation Xrotation
								JOINT HeadEnd
								{
									OFFSET 0.000000 11.655085 0.000000
									CHANNELS 3 Zrotation Yrotation Xrotation
									End Site
									{
										OFFSET 0.000000 0.000000 0.000000
									}
								}
							}
						}
					}
					JOINT RightShoulder
					{
						OFFSET -2.625389 11.175210 0.000000
						CHANNELS 3 Zrotation Yrotation Xrotation
						JOINT RightArm
						{
							OFFSET -0.000000 10.434715 -0.000000
							CHANNELS 3 Zrotation Yrotation Xrotation
							JOINT RightForeArm
							{
								OFFSET -0.000000 29.628420 0.000000
								CHANNELS 3 Zrotation Yrotation Xrotation
								JOINT RightHand
								{
									OFFSET -0.000000 22.857611 0.000000
									CHANNELS 3 Zrotation Yrotation Xrotation
									JOINT RightHandThumb1
									{
										OFFSET -2.867323 3.959563 2.944291
										CHANNELS 3 Zrotation Yrotation Xrotation
										JOINT RightHandThumb2
										{
											OFFSET 0.000000 3.350399 0.000000
											CHANNELS 3 Zrotation Yrotation Xrotation
											JOINT RightHandThumb3
											{
												OFFSET 0.000000 3.756509 -0.000000
												CHANNELS 3 Zrotation Yrotation Xrotation
												JOINT RightHandThumb4
												{
													OFFSET 0.000000 3.147345 0.000000
													CHANNELS 3 Zrotation Yrotation Xrotation
													End Site
													{
														OFFSET 0.000000 0.000000 0.000000
													}
												}
											}
										}
									}
									JOINT RightHandIndex1
									{
										OFFSET -0.086752 10.030893 2.345280
										CHANNELS 3 Zrotation Yrotation Xrotation
										JOINT RightHandIndex2
										{
											OFFSET -0.000000 4.061090 0.000000
											CHANNELS 3 Zrotation Yrotation Xrotation
											JOINT RightHandIndex3
											{
												OFFSET -0.000000 3.248873 0.000000
												CHANNELS 3 Zrotation Yrotation Xrotation
												JOINT RightHandIndex4
												{
													OFFSET 0.000000 2.639709 -0.000000
													CHANNELS 3 Zrotation Yrotation Xrotation
													End Site
													{
														OFFSET 0.000000 0.000000 0.000000
													}
												}
											}
										}
									}
									JOINT RightHandMiddle1
									{
										OFFSET 0.104102 9.502952 0.006768
										CHANNELS 3 Zrotation Yrotation Xrotation
										JOINT RightHandMiddle2
										{
											OFFSET 0.000000 4.568727 0.000000
											CHANNELS 3 Zrotation Yrotation Xrotation
											JOINT RightHandMiddle3
											{
												OFFSET 0.000000 3.654981 -0.000000
												CHANNELS 3 Zrotation Yrotation Xrotation
												JOINT RightHandMiddle4
												{
													OFFSET -0.000000 2.741236 -0.000000
													CHANNELS 3 Zrotation Yrotation Xrotation
													End Site
													{
														OFFSET 0.000000 0.000000 0.000000
													}
												}
											}
										}
									}
									JOINT RightHandRing1
									{
										OFFSET 0.086752 8.921708 -2.267442
										CHANNELS 3 Zrotation Yrotation Xrotation
										JOINT RightHandRing2
										{
											OFFSET -0.000000 4.061090 0.000000
											CHANNELS 3 Zrotation Yrotation Xrotation
											JOINT RightHandRing3
											{
												OFFSET 0.000000 3.654981 -0.000000
												CHANNELS 3 Zrotation Yrotation Xrotation
												JOINT RightHandRing4
												{
													OFFSET 0.000000 2.741236 -0.000000
													CHANNELS 3 Zrotation Yrotation Xrotation
													End Site
													{
														OFFSET 0.000000 0.000000 0.000000
													}
												}
											}
										}
									}
									JOINT RightHandPinky1
									{
										OFFSET -0.173504 7.976997 -4.467199
										CHANNELS 3 Zrotation Yrotation Xrotation
										JOINT RightHandPinky2
										{
											OFFSET 0.000000 3.350399 -0.000000
											CHANNELS 3 Zrotation Yrotation Xrotation
											JOINT RightHandPinky3
											{
												OFFSET -0.000000 2.842763 0.000000
												CHANNELS 3 Zrotation Yrotation Xrotation
												JOINT RightHandPinky4
												{
													OFFSET -0.000000 2.639709 0.000000
													CHANNELS 3 Zrotation Yrotation Xrotation
													End Site
													{
														OFFSET 0.000000 0.000000 0.000000
													}
												}
											}
										}
									}
									JOINT RightForeArmEnd
									{
										OFFSET 0.000000 0.000000 0.000000
										CHANNELS 3 Zrotation Yrotation Xrotation
										End Site
										{
											OFFSET 0.000000 0.000000 0.000000
										}
									}
								}
								JOINT RightArmEnd
								{
									OFFSET 0.000000 0.000000 0.000000
									CHANNELS 3 Zrotation Yrotation Xrotation
									End Site
									{
										OFFSET 0.000000 0.000000 0.000000
									}
								}
							}
						}
					}
					JOINT LeftShoulder
					{
						OFFSET 2.625389 11.175210 0.000000
						CHANNELS 3 Zrotation Yrotation Xrotation
						JOINT LeftArm
						{
							OFFSET 0.000000 10.813635 -0.000000
							CHANNELS 3 Zrotation Yrotation Xrotation
							JOINT LeftForeArm
							{
								OFFSET 0.000000 28.724781 0.000000
								CHANNELS 3 Zrotation Yrotation Xrotation
								JOINT LeftHand
								{
									OFFSET 0.644384 25.716167 -0.328871
									CHANNELS 3 Zrotation Yrotation Xrotation
									JOINT LeftHandThumb1
									{
										OFFSET 2.867323 3.959563 2.944291
										CHANNELS 3 Zrotation Yrotation Xrotation
										JOINT LeftHandThumb2
										{
											OFFSET 0.000000 3.350399 0.000000
											CHANNELS 3 Zrotation Yrotation Xrotation
											JOINT LeftHandThumb3
											{
												OFFSET -0.000000 3.756509 0.000000
												CHANNELS 3 Zrotation Yrotation Xrotation
												JOINT LeftHandThumb4
												{
													OFFSET -0.000000 3.100000 0.000000
													CHANNELS 3 Zrotation Yrotation Xrotation
													End Site
													{
														OFFSET 0.000000 0.000000 0.000000
													}
												}
											}
										}
									}
									JOINT LeftHandIndex1
									{
										OFFSET 0.086752 10.030893 2.345280
										CHANNELS 3 Zrotation Yrotation Xrotation
										JOINT LeftHandIndex2
										{
											OFFSET -0.000000 4.061090 -0.000000
											CHANNELS 3 Zrotation Yrotation Xrotation
											JOINT LeftHandIndex3
											{
												OFFSET 0.000000 3.248873 -0.000000
												CHANNELS 3 Zrotation Yrotation Xrotation
												JOINT LeftHandIndex4
												{
													OFFSET 0.000000 2.639709 -0.000000
													CHANNELS 3 Zrotation Yrotation Xrotation
													End Site
													{
														OFFSET 0.000000 0.000000 0.000000
													}
												}
											}
										}
									}
									JOINT LeftHandMiddle1
									{
										OFFSET -0.104102 9.502952 0.006768
										CHANNELS 3 Zrotation Yrotation Xrotation
										JOINT LeftHandMiddle2
										{
											OFFSET -0.000000 4.568727 -0.000000
											CHANNELS 3 Zrotation Yrotation Xrotation
											JOINT LeftHandMiddle3
											{
												OFFSET 0.000000 3.654981 0.000000
												CHANNELS 3 Zrotation Yrotation Xrotation
												JOINT LeftHandMiddle4
												{
													OFFSET 0.000000 2.741236 -0.000000
													CHANNELS 3 Zrotation Yrotation Xrotation
													End Site
													{
														OFFSET 0.000000 0.000000 0.000000
													}
												}
											}
										}
									}
									JOINT LeftHandRing1
									{
										OFFSET -0.086752 8.921708 -2.267442
										CHANNELS 3 Zrotation Yrotation Xrotation
										JOINT LeftHandRing2
										{
											OFFSET 0.000000 4.061090 0.000000
											CHANNELS 3 Zrotation Yrotation Xrotation
											JOINT LeftHandRing3
											{
												OFFSET 0.000000 3.654981 0.000000
												CHANNELS 3 Zrotation Yrotation Xrotation
												JOINT LeftHandRing4
												{
													OFFSET 0.000000 2.741236 0.000000
													CHANNELS 3 Zrotation Yrotation Xrotation
													End Site
													{
														OFFSET 0.000000 0.000000 0.000000
													}
												}
											}
										}
									}
									JOINT LeftHandPinky1
									{
										OFFSET 0.173504 7.976997 -4.467199
										CHANNELS 3 Zrotation Yrotation Xrotation
										JOINT LeftHandPinky2
										{
											OFFSET -0.000000 3.350399 -0.000000
											CHANNELS 3 Zrotation Yrotation Xrotation
											JOINT LeftHandPinky3
											{
												OFFSET 0.000000 2.842763 0.000000
												CHANNELS 3 Zrotation Yrotation Xrotation
												JOINT LeftHandPinky4
												{
													OFFSET -0.000000 2.639709 -0.000000
													CHANNELS 3 Zrotation Yrotation Xrotation
													End Site
													{
														OFFSET 0.000000 0.000000 0.000000
													}
												}
											}
										}
									}
									JOINT LeftForeArmEnd
									{
										OFFSET 0.000000 0.000000 0.000000
										CHANNELS 3 Zrotation Yrotation Xrotation
										End Site
										{
											OFFSET 0.000000 0.000000 0.000000
										}
									}
								}
								JOINT LeftArmEnd
								{
									OFFSET 0.000000 0.000000 0.000000
									CHANNELS 3 Zrotation Yrotation Xrotation
									End Site
									{
										OFFSET 0.000000 0.000000 0.000000
									}
								}
							}
						}
					}
				}
			}
		}
	}
	JOINT RightUpLeg
	{
		OFFSET -11.289943 0.000000 0.000000
		CHANNELS 3 Zrotation Yrotation Xrotation
		JOINT RightLeg
		{
			OFFSET 0.000000 -38.200325 0.000000
			CHANNELS 3 Zrotation Yrotation Xrotation
			JOINT RightFoot
			{
				OFFSET -0.000000 -39.900856 -0.000000
				CHANNELS 3 Zrotation Yrotation Xrotation
				JOINT RightToeBase
				{
					OFFSET 0.000000 0.000000 15.261641
					CHANNELS 3 Zrotation Yrotation Xrotation
					JOINT RightToeBaseEnd
					{
						OFFSET 0.000000 0.000000 7.370709
						CHANNELS 3 Zrotation Yrotation Xrotation
						End Site
						{
							OFFSET 0.000000 0.000000 0.000000
						}
					}
				}
				JOINT RightLegEnd
				{
					OFFSET 0.000000 0.000000 0.000000
					CHANNELS 3 Zrotation Yrotation Xrotation
					End Site
					{
						OFFSET 0.000000 0.000000 0.000000
					}
				}
			}
			JOINT RightUpLegEnd
			{
				OFFSET 0.000000 0.000000 0.000000
				CHANNELS 3 Zrotation Yrotation Xrotation
				End Site
				{
					OFFSET 0.000000 0.000000 0.000000
				}
			}
		}
	}
	JOINT LeftUpLeg
	{
		OFFSET 11.315661 -0.000000 0.000000
		CHANNELS 3 Zrotation Yrotation Xrotation
		JOINT LeftLeg
		{
			OFFSET -0.000000 -38.200325 -0.000000
			CHANNELS 3 Zrotation Yrotation Xrotation
			JOINT LeftFoot
			{
				OFFSET 0.000000 -39.900856 -0.000000
				CHANNELS 3 Zrotation Yrotation Xrotation
				JOINT LeftToeBase
				{
					OFFSET -0.000000 -0.000000 15.261641
					CHANNELS 3 Zrotation Yrotation Xrotation
					JOINT LeftToeBaseEnd
					{
						OFFSET 0.000000 -0.000000 7.539996
						CHANNELS 3 Zrotation Yrotation Xrotation
						End Site
						{
							OFFSET 0.000000 0.000000 0.000000
						}
					}
				}
				JOINT LeftLegEnd
				{
					OFFSET 0.000000 0.000000 0.000000
					CHANNELS 3 Zrotation Yrotation Xrotation
					End Site
					{
						OFFSET 0.000000 0.000000 0.000000
					}
				}
			}
			JOINT LeftUpLegEnd
			{
				OFFSET 0.000000 0.000000 0.000000
				CHANNELS 3 Zrotation Yrotation Xrotation
				End Site
				{
					OFFSET 0.000000 0.000000 0.000000
				}
			}
		}
	}
}
MOTION
Frames: 4
Frame Time: 0.016667
0.172168 88.686462 2.753681 0.042271 -0.186758 -10.431813 0.999513 0.059922 7.066085 -0.785467 0.358991 3.464293 0.040323 -0.484053 4.224757 -1.167004 0.304528 5.106472 2.751783 -0.224208 6.259412 0.655573 0.862755 -2.539983 -0.149386 -0.852058 -20.523792 0.000000 0.000000 0.000000 92.658684 -0.146189 9.610909 68.577194 -22.104155 1.893786 0.242960 18.896490 32.041367 -6.267794 5.717197 -6.505337 16.827196 31.151314 65.079407 -5.042302 -6.395546 -11.489784 -3.645551 -4.217752 -7.811848 0.000000 0.000000 0.000000 -13.065842 -6.732593 10.663050 0.613101 0.526658 0.537866 0.261693 0.098448 0.596410 0.000000 0.000000 0.000000 -12.229390 -1.310772 6.286462 -0.395950 0.526938 0.175427 0.043284 0.024774 0.173653 0.000000 0.000000 0.000000 -9.905845 6.285663 1.619056 -0.053356 -1.013702 -0.343148 -0.159005 -0.035683 -0.226583 0.000000 0.000000 0.000000 -8.486603 14.393348 -3.602032 0.553194 -2.000834 -0.950020 0.366885 -0.043571 -0.738020 0.000000 0.000000 0.000000 0.000000 0.000000 0.000000 0.000000 0.000000 0.000000 -90.802811 0.095247 4.632262 -69.385696 12.715967 -5.742529 -0.334122 -12.451441 57.791027 16.797848 -2.243309 -10.694066 -15.603609 -31.613075 66.438225 3.569785 3.773228 -7.259141 2.428837 2.615046 -5.144503 0.000000 0.000000 0.000000 16.655092 -11.993513 16.404003 -0.653539 0.544430 -0.374109 -0.634455 0.087576 -0.419348 0.000000 0.000000 0.000000 15.758284 -6.461988 10.615846 -0.743088 0.518680 -0.181957 -0.995021 0.031696 -0.145030 0.000000 0.000000 0.000000 12.202156 2.317584 3.831382 -2.503893 -1.041555 0.353639 -2.539054 -0.044479 0.287945 0.000000 0.000000 0.000000 7.023125 12.380455 -3.742199 -4.593039 -2.000032 1.258241 -4.152317 0.018608 1.139610 0.000000 0.000000 0.000000 0.000000 0.000000 0.000000 0.000000 0.000000 0.000000 -0.584462 -9.606165 14.354918 -0.073307 -0.678831 5.180238 -3.350395 -7.630589 17.344604 -0.750404 0.776525 -18.704248 0.000000 0.000000 0.000000 0.000000 0.000000 0.000000 0.000000 0.000000 0.000000 -1.442947 -6.152595 9.045927 0.061663 0.292532 10.052124 3.823682 -1.145424 16.945602 0.247520 -0.415576 -20.774515 0.000000 0.000000 0.000000 0.000000 0.000000 0.000000 0.000000 0.000000 0.000000 
0.168568 88.678947 2.756817 0.035772 -0.146184 -10.434536 1.005179 0.060646 7.075624 -0.780961 0.357240 3.471085 0.027893 -0.471806 4.252933 -1.163538 0.303503 5.101486 2.737786 -0.216197 6.314268 0.654764 0.856968 -2.514635 -0.150558 -0.857344 -20.522974 0.000000 0.000000 0.000000 92.690269 -0.152014 9.615459 68.514061 -22.059576 1.948154 0.254180 18.985529 31.875187 -5.822841 6.113995 -6.627426 16.911757 31.116558 64.985077 -5.161608 -6.559482 -11.768054 -3.733938 -4.325799 -8.007333 0.000000 0.000000 0.000000 -12.408080 -6.847682 10.457959 0.597264 0.529056 0.544955 0.241024 0.100789 0.604598 0.000000 0.000000 0.000000 -11.552099 -1.424497 6.153094 -0.414076 0.527913 0.177386 0.031058 0.025235 0.176548 0.000000 0.000000 0.000000 -9.138422 6.158408 1.608232 -0.037347 -1.014524 -0.345413 -0.146466 -0.036026 -0.228617 0.000000 0.000000 0.000000 -7.671719 14.264288 -3.523602 0.621484 -2.005509 -0.949981 0.417904 -0.047546 -0.734471 0.000000 0.000000 0.000000 0.000000 0.000000 0.000000 0.000000 0.000000 0.000000 -90.833389 0.103605 4.606935 -69.364243 12.414133 -5.709076 -0.364335 -12.595965 57.761417 16.159452 -3.003776 -10.851139 -15.769540 -31.545828 66.249680 3.805018 4.098627 -7.810936 2.601048 2.832387 -5.533636 0.000000 0.000000 0.000000 15.286428 -11.773917 15.971717 -0.644294 0.541507 -0.395555 -0.630255 0.084338 -0.440031 0.000000 0.000000 0.000000 14.330301 -6.229393 10.308329 -0.750845 0.516810 -0.191453 -1.002657 0.029946 -0.153080 0.000000 0.000000 0.000000 10.585765 2.594771 3.694013 -2.615799 -1.039796 0.370028 -2.644735 -0.042622 0.301163 0.000000 0.000000 0.000000 5.392301 12.662665 -3.754052 -4.809920 -1.994486 1.312430 -4.364981 0.023479 1.187158 0.000000 0.000000 0.000000 0.000000 0.000000 0.000000 0.000000 0.000000 0.000000 -0.562759 -9.613522 14.368917 -0.073016 -0.676613 5.176166 -3.364429 -7.624228 17.321255 -0.744865 0.775803 -18.688885 0.000000 0.000000 0.000000 0.000000 0.000000 0.000000 0.000000 0.000000 0.000000 -1.437280 -6.154894 9.024939 0.061130 0.292808 10.062957 3.830290 -1.176017 16.921753 0.247367 -0.413393 -20.765900 0.000000 0.000000 0.000000 0.000000 0.000000 0.000000 0.000000 0.000000 0.000000 
0.164243 88.670769 2.762263 0.027495 -0.105329 -10.435439 1.012061 0.061061 7.086577 -0.777120 0.354752 3.474823 0.014822 -0.460722 4.283847 -1.159623 0.301837 5.091965 2.722081 -0.203160 6.357783 0.653165 0.852643 -2.495783 -0.152476 -0.861335 -20.518167 0.000000 0.000000 0.000000 92.719650 -0.159228 9.623477 68.454826 -22.033123 2.000782 0.264968 19.069876 31.684637 -5.344956 6.519189 -6.754774 17.005228 31.079231 64.883675 -5.288197 -6.738708 -12.068616 -3.828241 -4.443807 -8.218707 0.000000 0.000000 0.000000 -11.683919 -6.977331 10.222675 0.610495 0.530294 0.558102 0.249815 0.101905 0.617959 0.000000 0.000000 0.000000 -10.821051 -1.549118 5.999379 -0.405420 0.528449 0.181784 0.046921 0.025269 0.181465 0.000000 0.000000 0.000000 -8.331529 6.024137 1.588012 0.005106 -1.014760 -0.350945 -0.106587 -0.035795 -0.233131 0.000000 0.000000 0.000000 -6.829050 14.129269 -3.445094 0.710752 -2.008255 -0.959520 0.489730 -0.049589 -0.739004 0.000000 0.000000 0.000000 0.000000 0.000000 0.000000 0.000000 0.000000 0.000000 -90.859497 0.109775 4.585518 -69.358047 12.102079 -5.683800 -0.397620 -12.762657 57.699070 15.420507 -3.862655 -11.061703 -15.965993 -31.465572 66.024529 4.083569 4.485060 -8.465244 2.805648 3.091005 -5.995530 0.000000 0.000000 0.000000 13.650105 -11.498825 15.426094 -0.613183 0.537724 -0.420383 -0.605032 0.080236 -0.463823 0.000000 0.000000 0.000000 12.634271 -5.945327 9.914190 -0.736851 0.514440 -0.202577 -0.989355 0.027797 -0.162446 0.000000 0.000000 0.000000 8.685122 2.916663 3.504743 -2.718883 -1.037290 0.389407 -2.741558 -0.040194 0.316638 0.000000 0.000000 0.000000 3.498165 12.973265 -3.786836 -5.029865 -1.986683 1.378225 -4.579016 0.030412 1.244709 0.000000 0.000000 0.000000 0.000000 0.000000 0.000000 0.000000 0.000000 0.000000 -0.536897 -9.620703 14.381292 -0.072600 -0.673922 5.174614 -3.379171 -7.623420 17.293505 -0.739895 0.775257 -18.672338 0.000000 0.000000 0.000000 0.000000 0.000000 0.000000 0.000000 0.000000 0.000000 -1.430620 -6.161571 9.001879 0.060530 0.293095 10.078324 3.834906 -1.206500 16.891788 0.247555 -0.410994 -20.754793 0.000000 0.000000 0.000000 0.000000 0.000000 0.000000 0.000000 0.000000 0.000000 
0.158835 88.662048 2.769907 0.017263 -0.063615 -10.433572 1.020327 0.061056 7.098634 -0.774086 0.351446 3.476227 0.001456 -0.451381 4.316993 -1.155425 0.299020 5.078963 2.706507 -0.185894 6.385581 0.650474 0.849238 -2.485691 -0.154491 -0.863562 -20.508162 0.000000 0.000000 0.000000 92.744904 -0.167371 9.634362 68.402504 -22.024158 2.042932 0.274760 19.150249 31.479656 -4.853346 6.929152 -6.876215 17.108873 31.038994 64.774269 -5.423119 -6.935264 -12.394924 -3.929326 -4.573186 -8.448049 0.000000 0.000000 0.000000 -10.883931 -7.122959 9.958686 0.662425 0.530087 0.577944 0.298036 0.101553 0.637131 0.000000 0.000000 0.000000 -10.028900 -1.686164 5.827442 -0.359764 0.528472 0.188871 0.101121 0.024813 0.188599 0.000000 0.000000 0.000000 -7.480031 5.881852 1.559930 0.085545 -1.014267 -0.360072 -0.028042 -0.034896 -0.240346 0.000000 0.000000 0.000000 -5.956094 13.988575 -3.364934 0.831594 -2.008542 -0.979699 0.593303 -0.049330 -0.752418 0.000000 0.000000 0.000000 0.000000 0.000000 0.000000 0.000000 0.000000 0.000000 -90.879807 0.113957 4.568957 -69.365532 11.795868 -5.673746 -0.434608 -12.950922 57.604610 14.590084 -4.797039 -11.316660 -16.196444 -31.371326 65.759491 4.408538 4.939471 -9.231461 3.045330 3.395432 -6.537039 0.000000 0.000000 0.000000 11.728016 -11.161832 14.757173 -0.574280 0.532980 -0.448088 -0.572671 0.075172 -0.490149 0.000000 0.000000 0.000000 10.654555 -5.605126 9.427053 -0.715945 0.511517 -0.215198 -0.970196 0.025206 -0.173009 0.000000 0.000000 0.000000 6.487553 3.284565 3.262882 -2.831962 -1.033986 0.411703 -2.848081 -0.037169 0.334316 0.000000 0.000000 0.000000 1.330076 13.310207 -3.835703 -5.272215 -1.976331 1.455614 -4.813340 0.039683 1.312057 0.000000 0.000000 0.000000 0.000000 0.000000 0.000000 0.000000 0.000000 0.000000 -0.507023 -9.630202 14.391107 -0.072045 -0.670752 5.175224 -3.394463 -7.628583 17.261932 -0.735662 0.774915 -18.655401 0.000000 0.000000 0.000000 0.000000 0.000000 0.000000 0.000000 0.000000 0.000000 -1.422752 -6.173209 8.975681 0.059874 0.293397 10.098612 3.837206 -1.236606 16.855089 0.248059 -0.408420 -20.741621 0.000000 0.000000 0.000000 0.000000 0.000000 0.000000 0.000000 0.000000 0.000000 
